Coordinates
version=1
nRows=10
nColumns=34
inDegrees=yes

Units are S.I. units (second, meters, Newtons, ...)
Angles are in degrees.

endheader
time	pelvis_tilt	pelvis_list	pelvis_rotation	pelvis_tx	pelvis_ty	pelvis_tz	hip_flexion_r	hip_adduction_r	hip_rotation_r	knee_angle_r	ankle_angle_r	subtalar_angle_r	mtp_angle_r	hip_flexion_l	hip_adduction_l	hip_rotation_l	knee_angle_l	socket_flexion	socket_adduction	socket_rotation	socket_tx	socket_ty	socket_tz	pros_ankle_rx	pros_ankle_ry	pros_ankle_rz	pros_ankle_tx	pros_ankle_ty	pros_ankle_tz	foot_flex	lumbar_extension	lumbar_bending	lumbar_rotation
      0.00000000	     -2.10165887	     -9.15512844	     -4.91168899	     -0.78447291	      1.04326086	      0.36684946	    -17.34238701	      9.74416868	     -4.01281615	     -2.66746424	      3.69416693	     22.71752106	     27.81211375	     20.67218439	     -8.92288919	      1.04274809	      2.06670600	      1.51187760	     -0.40807967	     -1.04031512	      0.00000000	      0.00027299	      0.00000000	      0.00000000	      0.00000000	      0.00000000	      0.00000000	      0.00000000	      0.00000000	      0.08262575	    -16.17892527	      4.13089373	     13.30467884
      0.00416667	     -2.13222929	     -9.17972346	     -4.98164938	     -0.77960336	      1.04233061	      0.36684831	    -17.53003542	      9.69962972	     -3.96123057	     -2.78867241	      3.69901220	     22.75168461	     27.82499979	     20.72120986	     -8.92377271	      1.06785714	      1.97169149	      1.62336700	     -0.39782098	     -1.09016505	      0.00000000	     -0.00003107	      0.00000000	      0.00000000	      0.00000000	      0.00000000	      0.00000000	      0.00000000	      0.00000000	     -0.26497851	    -16.14287315	      4.07784274	     13.30285769
      0.00833333	     -2.16550023	     -9.19498929	     -5.07830918	     -0.77455465	      1.04137646	      0.36688762	    -17.72154157	      9.63626279	     -3.88674949	     -2.91334007	      3.72238411	     22.81330895	     27.85192737	     20.76725045	     -8.92695410	      1.11949354	      1.84805019	      1.72040431	     -0.39361017	     -1.17047997	      0.00000000	     -0.00039918	      0.00000000	      0.00000000	      0.00000000	      0.00000000	      0.00000000	      0.00000000	      0.00000000	     -0.66619992	    -16.11500548	      4.01161542	     13.31505423
      0.01250000	     -2.20149331	     -9.20994469	     -5.17996467	     -0.76934187	      1.04036876	      0.36689727	    -17.91426505	      9.56355058	     -3.80417154	     -3.05529954	      3.75951969	     22.89559359	     27.89434772	     20.82006307	     -8.92831751	      1.18839421	      1.69645528	      1.82091985	     -0.39111976	     -1.26886911	      0.00000000	     -0.00085188	      0.00000000	      0.00000000	      0.00000000	      0.00000000	      0.00000000	      0.00000000	      0.00000000	     -1.06891015	    -16.09260999	      3.92889419	     13.34134181
      0.01666667	     -2.23414051	     -9.22495258	     -5.28032936	     -0.76400999	      1.03935773	      0.36689140	    -18.09596309	      9.48859702	     -3.72304414	     -3.22573725	      3.80120236	     22.99292932	     27.95397053	     20.87508350	     -8.92828666	      1.26699322	      1.51675424	      1.93213197	     -0.39416960	     -1.37641142	      0.00000000	     -0.00134288	      0.00000000	      0.00000000	      0.00000000	      0.00000000	      0.00000000	      0.00000000	      0.00000000	     -1.47176860	    -16.07445041	      3.84073749	     13.38092824
      0.02083333	     -2.27101894	     -9.23776800	     -5.35667476	     -0.75855606	      1.03831534	      0.36684523	    -18.28074626	      9.41758822	     -3.65695397	     -3.39551018	      3.83143790	     23.08171569	     28.01359603	     20.94062047	     -8.91354507	      1.32798847	      1.32786531	      2.07760902	     -0.39974714	     -1.46806653	      0.00000000	     -0.00188050	      0.00000000	      0.00000000	      0.00000000	      0.00000000	      0.00000000	      0.00000000	      0.00000000	     -1.84870785	    -16.05157336	      3.75752068	     13.41734796
      0.02500000	     -2.30929272	     -9.23679632	     -5.46756520	     -0.75299033	      1.03728609	      0.36685584	    -18.44664094	      9.31570562	     -3.59198267	     -3.60335098	      3.87448619	     23.20065257	     28.10523665	     20.99342733	     -8.90594186	      1.42277556	      1.09968562	      2.19234523	     -0.41045791	     -1.57640575	      0.00000000	     -0.00251552	      0.00000000	      0.00000000	      0.00000000	      0.00000000	      0.00000000	      0.00000000	      0.00000000	     -2.27780580	    -16.03051015	      3.64487045	     13.46709931
      0.02916667	     -2.47917592	     -9.18877391	     -5.45808670	     -0.74730016	      1.03580957	      0.36662141	    -18.20975856	      9.13936778	     -4.39462418	     -4.27194527	      4.06108395	     24.57452253	     30.26338302	     21.46036906	     -8.78249466	      1.45672424	      0.19786451	      1.93788540	     -0.42589670	     -1.54676581	      0.00000000	     -0.00335661	      0.00000000	      0.00000000	      0.00000000	      0.00000000	      0.00000000	      0.00000000	      0.00000000	     -2.62112655	    -15.81661205	      3.54354758	     13.48337560
      0.03333333	     -2.50803894	     -9.21253098	     -5.53760254	     -0.74161626	      1.03479472	      0.36660066	    -18.39312075	      9.07643001	     -4.29003552	     -4.46638636	      4.03238291	     24.58736491	     30.31078061	     21.48643733	     -8.79623671	      1.53030787	     -0.00559713	      2.13649025	     -0.44059977	     -1.57047596	      0.00000000	     -0.00413948	      0.00000000	      0.00000000	      0.00000000	      0.00000000	      0.00000000	      0.00000000	      0.00000000	     -2.99139964	    -15.80314633	      3.43222193	     13.49309517
      0.03750000	     -2.54196006	     -9.21506111	     -5.57759900	     -0.73584615	      1.03378808	      0.36651876	    -18.57562187	      9.00928488	     -4.21714334	     -4.64646714	      4.01021638	     24.60163932	     30.34154806	     21.53179425	     -8.76174906	      1.55016798	     -0.22866309	      2.38985141	     -0.46481156	     -1.61323460	      0.00000000	     -0.00488361	      0.00000000	      0.00000000	      0.00000000	      0.00000000	      0.00000000	      0.00000000	      0.00000000	     -3.23942886	    -15.78103895	      3.36992917	     13.50090251
